# xmcd
#
# Track frame offsets: 
#        150
#        21496
#        38039
#        59467
#        84776
#        104001
#        125299
#        144723
#        165257
#        182924
#        206069
#        222176
#        236250
#        260561
#        279688
#        299177
#
# Disc length: 4309 seconds
#
# Revision: 0
# Processed by: cddbd v1.5.2PL0 Copyright (c) Steve Scherf et al.
# Submitted via: ExactAudioCopy v1.0b3
#
DISCID=f610d310
DTITLE=群星 - TEST-CD试音极品03-A
DYEAR=2010
DGENRE=stereo
TTITLE0=把悲伤留给自己
TTITLE1=深情相拥
TTITLE2=水中花
TTITLE3=你把温柔给了谁
TTITLE4=庭院深深
TTITLE5=酒干倘卖无
TTITLE6=红豆
TTITLE7=外面的世界
TTITLE8=缘来缘去
TTITLE9=月满西楼
TTITLE10=月圆花好
TTITLE11=你怎么说
TTITLE12=星
TTITLE13=昨夜星辰
TTITLE14=为了谁
TTITLE15=盛夏的果实
EXTD=
EXTT0=
EXTT1=
EXTT2=
EXTT3=
EXTT4=
EXTT5=
EXTT6=
EXTT7=
EXTT8=
EXTT9=
EXTT10=
EXTT11=
EXTT12=
EXTT13=
EXTT14=
EXTT15=
PLAYORDER=
